# xmcd CD database file
#
# Track frame offsets:
#	150
#	2905
#	14006
#	24475
#	34037
#	38006
#	50115
#	60165
#	63831
#	78281
#
# Disc length: 1285 seconds
#
# Revision: 0
# Processed by: cddbd v1.5.2PL0 Copyright (c) Steve Scherf et al.
# Submitted via: CDex 1.51
#
DISCID=7205030a
DTITLE=Lex The Hex Master - Mr. Ugly Part 2
DYEAR=2017
DGENRE=Horrorcore
TTITLE0=Introh
TTITLE1=Thousand Degrees (Biggie RMX)
TTITLE2=Survival Of The Fittest (Mobb Deep RMX)
TTITLE3=Dead Wrong (feat. Insane Poetry)
TTITLE4=Lex Going Off Pt. 1
TTITLE5=Don't Cry For Me
TTITLE6=Mic Check (Juelz Santana RMX)
TTITLE7=Lex Going Off Pt. 2
TTITLE8=High Flyers (feat. Black Mask Armada)
TTITLE9=One Night (NAS RMX)
EXTD=YEAR: 2017
EXTT0=
EXTT1=
EXTT2=
EXTT3=
EXTT4=
EXTT5=
EXTT6=
EXTT7=
EXTT8=
EXTT9=
PLAYORDER=
